# xmcd CD database file
# Copyright (C) 1993-1996 Ti Kan
#
# Track frame offsets:
# 150
# 11675
# 20495
# 32230
# 45857
# 57872
# 68647
# 85567
# 95600
# 106620
#
# Disc length: 1583 seconds
#
# Revision: 0
# Processed by: cddbd v1.4b41PL1 Copyright (c) Steve Scherf et al.
# Submitted via: inCDius 1.1b5
#
DISCID=6a062d0a
DTITLE=Don Gibson - Don Gibson
DYEAR=1900
DGENRE=
TTITLE0=Oh Lonesome Me
TTITLE1=Blue Blue Day
TTITLE2=Sea Of Heartbreak
TTITLE3=Good Morning, Dear
TTITLE4=I Can't Stop Loving You
TTITLE5=Lonesome Number One
TTITLE6=Solitary
TTITLE7=Funny, Familiar, Forgotten Feelings
TTITLE8=A Little Bitty Tear
TTITLE9=Half As Much
EXTD=
EXTT0=
EXTT1=
EXTT2=
EXTT3=
EXTT4=
EXTT5=
EXTT6=
EXTT7=
EXTT8=
EXTT9=
PLAYORDER=
